# xmcd CD database file
#
# Track frame offsets:
#	150
#	13763
#	27707
#	42537
#	60509
#	75271
#	88017
#	114268
#	125592
#	142856
#	159194
#	181353
#	194993
#	209631
#	225033
#	239703
#
# Disc length: 3426 seconds
#
# Revision: 0
# Processed by: cddbd v1.4PL0 Copyright (c) Steve Scherf et al.
# Submitted via: CDex 1.50beta10
#
DISCID=d70d6010
DTITLE=Il Grande Jazz - Il Grande Jazz
DYEAR=1900
DGENRE=Jazz
TTITLE0=All Of Me
TTITLE1=Dream A Little Dream Of Me
TTITLE2=Cheek To Cheek
TTITLE3=Someone To Watch Over Me
TTITLE4=Lush Life
TTITLE5=Lover Man
TTITLE6=How Long Has This Been Going On
TTITLE7=What Is This Thing Called Love
TTITLE8=In he Still Of The Night
TTITLE9=Stolen Moments
TTITLE10=My One And Olly Love
TTITLE11=How Deep Is The Ocean?
TTITLE12=The Birth Of The Blues
TTITLE13=I Loves You,Porgy
TTITLE14=How High The Moon
TTITLE15=Young And Foolish
EXTD=
EXTT0=
EXTT1=
EXTT2=
EXTT3=
EXTT4=
EXTT5=
EXTT6=
EXTT7=
EXTT8=
EXTT9=
EXTT10=
EXTT11=
EXTT12=
EXTT13=
EXTT14=
EXTT15=
PLAYORDER=
